<svg width="90" height="15" viewBox="0 0 90 15" fill="none" xmlns="http://www.w3.org/2000/svg">
<path d="M12.6882 5.74219H9.88849C9.83736 5.37997 9.73295 5.05824 9.57528 4.77699C9.41761 4.49148 9.2152 4.24858 8.96804 4.0483C8.72088 3.84801 8.43537 3.6946 8.11151 3.58807C7.7919 3.48153 7.4446 3.42827 7.0696 3.42827C6.39205 3.42827 5.80185 3.59659 5.29901 3.93324C4.79617 4.26562 4.40625 4.75142 4.12926 5.39062C3.85227 6.02557 3.71378 6.79687 3.71378 7.70455C3.71378 8.63778 3.85227 9.42187 4.12926 10.0568C4.41051 10.6918 4.80256 11.1712 5.3054 11.495C5.80824 11.8189 6.38992 11.9808 7.05043 11.9808C7.42117 11.9808 7.7642 11.9318 8.07955 11.8338C8.39915 11.7358 8.68253 11.593 8.92969 11.4055C9.17685 11.2138 9.38139 10.9815 9.54332 10.7088C9.70952 10.4361 9.82457 10.125 9.88849 9.77557L12.6882 9.78835C12.6158 10.3892 12.4347 10.9688 12.1449 11.527C11.8594 12.081 11.4737 12.5774 10.9879 13.0163C10.5064 13.451 9.93111 13.7962 9.26207 14.0518C8.5973 14.3033 7.84517 14.429 7.00568 14.429C5.83807 14.429 4.79403 14.1648 3.87358 13.6364C2.95739 13.108 2.23295 12.343 1.70028 11.3416C1.17188 10.3402 0.90767 9.12784 0.90767 7.70455C0.90767 6.27699 1.17614 5.0625 1.71307 4.06108C2.25 3.05966 2.97869 2.29687 3.89915 1.77273C4.8196 1.24432 5.85511 0.980113 7.00568 0.980113C7.7642 0.980113 8.46733 1.08665 9.11506 1.29972C9.76705 1.51278 10.3445 1.82386 10.8473 2.23295C11.3501 2.63778 11.7592 3.13423 12.0746 3.7223C12.3942 4.31037 12.5987 4.98366 12.6882 5.74219ZM18.7879 14.4418C17.795 14.4418 16.9363 14.2308 16.2119 13.8089C15.4917 13.3828 14.9356 12.7905 14.5436 12.032C14.1515 11.2692 13.9555 10.3849 13.9555 9.37926C13.9555 8.36506 14.1515 7.47869 14.5436 6.72017C14.9356 5.95739 15.4917 5.36506 16.2119 4.94318C16.9363 4.51705 17.795 4.30398 18.7879 4.30398C19.7808 4.30398 20.6373 4.51705 21.3575 4.94318C22.0819 5.36506 22.6402 5.95739 23.0322 6.72017C23.4242 7.47869 23.6203 8.36506 23.6203 9.37926C23.6203 10.3849 23.4242 11.2692 23.0322 12.032C22.6402 12.7905 22.0819 13.3828 21.3575 13.8089C20.6373 14.2308 19.7808 14.4418 18.7879 14.4418ZM18.8007 12.3324C19.2524 12.3324 19.6295 12.2045 19.9321 11.9489C20.2346 11.6889 20.4626 11.3352 20.616 10.8878C20.7737 10.4403 20.8525 9.93111 20.8525 9.36009C20.8525 8.78906 20.7737 8.27983 20.616 7.83239C20.4626 7.38494 20.2346 7.03125 19.9321 6.77131C19.6295 6.51136 19.2524 6.38139 18.8007 6.38139C18.3447 6.38139 17.9612 6.51136 17.6501 6.77131C17.3433 7.03125 17.111 7.38494 16.9534 7.83239C16.8 8.27983 16.7233 8.78906 16.7233 9.36009C16.7233 9.93111 16.8 10.4403 16.9534 10.8878C17.111 11.3352 17.3433 11.6889 17.6501 11.9489C17.9612 12.2045 18.3447 12.3324 18.8007 12.3324ZM28.7388 14.4098C27.993 14.4098 27.3176 14.218 26.7125 13.8345C26.1116 13.4467 25.6344 12.8778 25.2807 12.1278C24.9312 11.3736 24.7565 10.4489 24.7565 9.35369C24.7565 8.22869 24.9376 7.29332 25.2998 6.54759C25.6621 5.79759 26.1436 5.23722 26.7444 4.86648C27.3496 4.49148 28.0122 4.30398 28.7324 4.30398C29.2821 4.30398 29.7402 4.39773 30.1067 4.58523C30.4774 4.76847 30.7757 4.99858 31.0015 5.27557C31.2317 5.5483 31.4064 5.81676 31.5257 6.08097H31.6088V1.15909H34.3254V14.25H31.6408V12.6776H31.5257C31.3979 12.9503 31.2167 13.2209 30.9824 13.4893C30.7523 13.7536 30.4518 13.973 30.0811 14.1477C29.7146 14.3224 29.2672 14.4098 28.7388 14.4098ZM29.6017 12.2429C30.0406 12.2429 30.4113 12.1236 30.7139 11.8849C31.0207 11.642 31.2551 11.3033 31.417 10.8686C31.5832 10.4339 31.6663 9.92472 31.6663 9.34091C31.6663 8.7571 31.5854 8.25 31.4234 7.8196C31.2615 7.3892 31.0271 7.05682 30.7203 6.82244C30.4135 6.58807 30.0406 6.47088 29.6017 6.47088C29.1542 6.47088 28.7771 6.59233 28.4703 6.83523C28.1635 7.07812 27.9312 7.41477 27.7736 7.84517C27.6159 8.27557 27.5371 8.77415 27.5371 9.34091C27.5371 9.91193 27.6159 10.4169 27.7736 10.8558C27.9355 11.2905 28.1677 11.6314 28.4703 11.8786C28.7771 12.1214 29.1542 12.2429 29.6017 12.2429ZM40.7687 14.4418C39.7587 14.4418 38.8894 14.2372 38.1607 13.8281C37.4363 13.4148 36.878 12.831 36.486 12.0767C36.0939 11.3182 35.8979 10.4212 35.8979 9.38565C35.8979 8.37571 36.0939 7.48935 36.486 6.72656C36.878 5.96378 37.4299 5.36932 38.1415 4.94318C38.8574 4.51705 39.6969 4.30398 40.66 4.30398C41.3077 4.30398 41.9107 4.40838 42.4689 4.61719C43.0314 4.82173 43.5215 5.13068 43.9391 5.54403C44.361 5.95739 44.6891 6.47727 44.9235 7.10369C45.1579 7.72585 45.275 8.45455 45.275 9.28977V10.0376H36.9846V8.35014H42.7118C42.7118 7.9581 42.6266 7.6108 42.4562 7.30824C42.2857 7.00568 42.0492 6.76918 41.7466 6.59872C41.4483 6.42401 41.101 6.33665 40.7047 6.33665C40.2914 6.33665 39.9249 6.43253 39.6053 6.62429C39.29 6.81179 39.0428 7.06534 38.8638 7.38494C38.6848 7.70028 38.5932 8.05185 38.589 8.43963V10.044C38.589 10.5298 38.6785 10.9496 38.8574 11.3033C39.0407 11.657 39.2985 11.9297 39.6309 12.1214C39.9633 12.3132 40.3574 12.4091 40.8134 12.4091C41.116 12.4091 41.3929 12.3665 41.6444 12.2812C41.8958 12.196 42.111 12.0682 42.29 11.8977C42.4689 11.7273 42.6053 11.5185 42.6991 11.2713L45.2175 11.4375C45.0897 12.0426 44.8276 12.571 44.4313 13.0227C44.0393 13.4702 43.5322 13.8196 42.91 14.071C42.2921 14.3182 41.5783 14.4418 40.7687 14.4418ZM58.3836 5.74219H55.5839C55.5327 5.37997 55.4283 5.05824 55.2707 4.77699C55.113 4.49148 54.9106 4.24858 54.6634 4.0483C54.4163 3.84801 54.1308 3.6946 53.8069 3.58807C53.4873 3.48153 53.14 3.42827 52.765 3.42827C52.0874 3.42827 51.4972 3.59659 50.9944 3.93324C50.4916 4.26562 50.1016 4.75142 49.8247 5.39062C49.5477 6.02557 49.4092 6.79687 49.4092 7.70455C49.4092 8.63778 49.5477 9.42187 49.8247 10.0568C50.1059 10.6918 50.4979 11.1712 51.0008 11.495C51.5036 11.8189 52.0853 11.9808 52.7458 11.9808C53.1166 11.9808 53.4596 11.9318 53.7749 11.8338C54.0945 11.7358 54.3779 11.593 54.6251 11.4055C54.8722 11.2138 55.0768 10.9815 55.2387 10.7088C55.4049 10.4361 55.52 10.125 55.5839 9.77557L58.3836 9.78835C58.3112 10.3892 58.13 10.9688 57.8403 11.527C57.5548 12.081 57.1691 12.5774 56.6833 13.0163C56.2018 13.451 55.6265 13.7962 54.9575 14.0518C54.2927 14.3033 53.5406 14.429 52.7011 14.429C51.5335 14.429 50.4894 14.1648 49.569 13.6364C48.6528 13.108 47.9283 12.343 47.3957 11.3416C46.8673 10.3402 46.6031 9.12784 46.6031 7.70455C46.6031 6.27699 46.8715 5.0625 47.4085 4.06108C47.9454 3.05966 48.6741 2.29687 49.5945 1.77273C50.515 1.24432 51.5505 0.980113 52.7011 0.980113C53.4596 0.980113 54.1627 1.08665 54.8104 1.29972C55.4624 1.51278 56.0398 1.82386 56.5427 2.23295C57.0455 2.63778 57.4546 3.13423 57.77 3.7223C58.0896 4.31037 58.2941 4.98366 58.3836 5.74219ZM60.0472 14.25V4.43182H62.6871V6.14489H62.7894C62.9684 5.53551 63.2688 5.07528 63.6907 4.7642C64.1125 4.44886 64.5983 4.29119 65.148 4.29119C65.2844 4.29119 65.4314 4.29972 65.5891 4.31676C65.7468 4.33381 65.8853 4.35724 66.0046 4.38707V6.80327C65.8767 6.76491 65.6999 6.73082 65.474 6.70099C65.2482 6.67116 65.0415 6.65625 64.854 6.65625C64.4534 6.65625 64.0955 6.74361 63.7802 6.91832C63.4691 7.08878 63.2219 7.32741 63.0387 7.63423C62.8597 7.94105 62.7702 8.29474 62.7702 8.69531V14.25H60.0472ZM69.6609 14.4354C69.0345 14.4354 68.4762 14.3267 67.9862 14.1094C67.4961 13.8878 67.1083 13.5618 66.8228 13.1314C66.5416 12.6967 66.4009 12.1555 66.4009 11.5078C66.4009 10.9624 66.5011 10.5043 66.7014 10.1335C66.9017 9.76278 67.1744 9.46449 67.5196 9.23864C67.8647 9.01278 68.2568 8.84233 68.6957 8.72727C69.1389 8.61222 69.6034 8.53125 70.0892 8.48438C70.6602 8.42472 71.1204 8.36932 71.4698 8.31818C71.8193 8.26278 72.0728 8.18182 72.2305 8.07528C72.3882 7.96875 72.467 7.81108 72.467 7.60227V7.56392C72.467 7.15909 72.3392 6.84588 72.0835 6.62429C71.8321 6.4027 71.4741 6.2919 71.0096 6.2919C70.5196 6.2919 70.1296 6.40057 69.8399 6.6179C69.5501 6.83097 69.3583 7.09943 69.2646 7.4233L66.7461 7.21875C66.874 6.62216 67.1254 6.10653 67.5004 5.67188C67.8754 5.23295 68.359 4.89631 68.9514 4.66193C69.548 4.4233 70.2383 4.30398 71.0224 4.30398C71.5679 4.30398 72.0899 4.3679 72.5884 4.49574C73.0913 4.62358 73.5366 4.82173 73.9244 5.0902C74.3164 5.35866 74.6254 5.70384 74.8512 6.12571C75.0771 6.54332 75.19 7.04403 75.19 7.62784V14.25H72.6076V12.8885H72.5309C72.3733 13.1953 72.1623 13.4659 71.8981 13.7003C71.6339 13.9304 71.3164 14.1115 70.9457 14.2436C70.575 14.3714 70.1467 14.4354 69.6609 14.4354ZM70.4407 12.5561C70.8413 12.5561 71.195 12.4773 71.5018 12.3196C71.8086 12.1577 72.0494 11.9403 72.2241 11.6676C72.3988 11.3949 72.4862 11.0859 72.4862 10.7408V9.69886C72.4009 9.75426 72.2838 9.8054 72.1346 9.85227C71.9897 9.89489 71.8257 9.93537 71.6424 9.97372C71.4592 10.0078 71.2759 10.0398 71.0927 10.0696C70.9095 10.0952 70.7433 10.1186 70.5941 10.1399C70.2745 10.1868 69.9954 10.2614 69.7568 10.3636C69.5181 10.4659 69.3328 10.6044 69.2007 10.7791C69.0686 10.9496 69.0025 11.1626 69.0025 11.4183C69.0025 11.7891 69.1367 12.0724 69.4052 12.2685C69.6779 12.4602 70.0231 12.5561 70.4407 12.5561ZM82.3124 4.43182V6.47727H76.2528V4.43182H82.3124ZM77.6398 14.25V3.7223C77.6398 3.01065 77.7783 2.42045 78.0553 1.9517C78.3366 1.48295 78.7201 1.13139 79.2059 0.897016C79.6917 0.662641 80.2435 0.545454 80.8614 0.545454C81.279 0.545454 81.6604 0.577414 82.0056 0.641335C82.355 0.705255 82.615 0.762784 82.7854 0.81392L82.2996 2.85938C82.1931 2.82528 82.061 2.79332 81.9033 2.76349C81.7499 2.73366 81.5922 2.71875 81.4303 2.71875C81.0297 2.71875 80.7506 2.8125 80.593 3C80.4353 3.18324 80.3564 3.44105 80.3564 3.77344V14.25H77.6398ZM88.9282 4.43182V6.47727H83.0156V4.43182H88.9282ZM84.3579 2.07955H87.0809V11.233C87.0809 11.4844 87.1193 11.6804 87.196 11.821C87.2727 11.9574 87.3792 12.0533 87.5156 12.1087C87.6562 12.1641 87.8182 12.1918 88.0014 12.1918C88.1292 12.1918 88.2571 12.1811 88.3849 12.1598C88.5128 12.1342 88.6108 12.1151 88.679 12.1023L89.1072 14.1286C88.9709 14.1712 88.7791 14.2202 88.5319 14.2756C88.2848 14.3352 87.9844 14.3714 87.6307 14.3842C86.9744 14.4098 86.3991 14.3224 85.9048 14.1222C85.4147 13.9219 85.0334 13.6108 84.7606 13.1889C84.4879 12.767 84.3537 12.2344 84.3579 11.5909V2.07955Z" fill="#121417"/>
</svg>
